<svg width="24" height="24" viewBox="0 0 24 24" fill="none" xmlns="http://www.w3.org/2000/svg">
<path d="M12.3965 23.2441C18.1865 23.2441 22.9668 18.4639 22.9668 12.6631C22.9668 6.87305 18.1758 2.09277 12.3857 2.09277C6.5957 2.09277 1.81543 6.87305 1.81543 12.6631C1.81543 18.4639 6.5957 23.2441 12.3965 23.2441ZM12.3965 20.9775C7.78809 20.9775 4.09277 17.2715 4.09277 12.6631C4.09277 8.05469 7.77734 4.35938 12.3857 4.35938C16.9941 4.35938 20.6895 8.05469 20.7002 12.6631C20.7109 17.2715 16.9941 20.9775 12.3965 20.9775ZM10.0117 8.30176C8.35742 8.30176 7.12207 9.56934 7.12207 11.3633C7.12207 14.1885 10.2266 16.5625 11.8486 17.583C12.0312 17.6904 12.2568 17.8301 12.4072 17.8301C12.5576 17.8301 12.7725 17.6904 12.9336 17.583C14.5557 16.5518 17.6602 14.1885 17.6602 11.3633C17.6602 9.56934 16.4248 8.30176 14.7705 8.30176C13.6855 8.30176 12.8584 8.93555 12.3965 9.77344C11.9238 8.93555 11.1074 8.30176 10.0117 8.30176Z" fill="white"/>
</svg>
