<?xml version="1.0" encoding="utf-8"?>
<!-- Generator: Adobe Illustrator 24.0.1, SVG Export Plug-In . SVG Version: 6.00 Build 0)  -->
<!DOCTYPE svg PUBLIC "-//W3C//DTD SVG 1.1//EN" "http://www.w3.org/Graphics/SVG/1.1/DTD/svg11.dtd" [
	<!ENTITY ns_extend "http://ns.adobe.com/Extensibility/1.0/">
	<!ENTITY ns_ai "http://ns.adobe.com/AdobeIllustrator/10.0/">
	<!ENTITY ns_graphs "http://ns.adobe.com/Graphs/1.0/">
	<!ENTITY ns_vars "http://ns.adobe.com/Variables/1.0/">
	<!ENTITY ns_imrep "http://ns.adobe.com/ImageReplacement/1.0/">
	<!ENTITY ns_sfw "http://ns.adobe.com/SaveForWeb/1.0/">
	<!ENTITY ns_custom "http://ns.adobe.com/GenericCustomNamespace/1.0/">
	<!ENTITY ns_adobe_xpath "http://ns.adobe.com/XPath/1.0/">
]>
<svg version="1.1" id="Layer_1" xmlns:x="&ns_extend;" xmlns:i="&ns_ai;" xmlns:graph="&ns_graphs;"
	 xmlns="http://www.w3.org/2000/svg" xmlns:xlink="http://www.w3.org/1999/xlink" x="0px" y="0px" viewBox="80 0 305 162"
	 style="enable-background:new 80 0 305 162;" xml:space="preserve">
<style type="text/css">
	.st0{opacity:0.5;}
	.st1{fill:#F8F7F7;}
</style>
<metadata>
	<sfw  xmlns="&ns_sfw;">
		<slices></slices>
		<sliceSourceBounds  bottomLeftOrigin="true" height="145.4" width="261.2" x="97.3" y="9"></sliceSourceBounds>
	</sfw>
</metadata>
<g>
	<g class="st0">
		<path class="st1" d="M261.1,133.3c-1,0-1.9,0.2-2.6,0.7c-0.7,0.5-1.3,1.2-1.7,2c-0.4,0.8-0.6,1.8-0.6,2.8c0,1.1,0.3,1.9,1,2.6
			c0.7,0.6,1.6,1,2.7,1c1,0,1.9-0.2,2.6-0.7c0.7-0.5,1.3-1.2,1.7-2c0.4-0.8,0.6-1.7,0.6-2.8c0-1.1-0.3-1.9-1-2.6
			C263.2,133.6,262.3,133.3,261.1,133.3z"/>
		<path class="st1" d="M103.4,122.6L97.3,153h255.2l6-30.4H103.4z M268.1,141.4c-0.8,1.4-2,2.6-3.5,3.4c-1.5,0.8-3.2,1.2-5.1,1.2
			c-1.6,0-3-0.3-4.1-0.9c-1.2-0.6-2.1-1.4-2.7-2.5c-0.6-1-1-2.2-1-3.6c0-1.8,0.4-3.4,1.2-4.9c0.8-1.4,2-2.6,3.5-3.4
			c1.5-0.8,3.2-1.2,5.1-1.2c1.6,0,3,0.3,4.1,0.9c1.2,0.6,2.1,1.4,2.7,2.5c0.6,1,1,2.2,1,3.6C269.4,138.4,268.9,140,268.1,141.4z
			 M285.9,145.7h-3.7L277,137l-1.7,8.6H271l3.1-15.7h3.7l5.2,8.6l1.7-8.6h4.4L285.9,145.7z M301.9,145.7h-12l3.1-15.7h4.5l-2.4,12.2
			h7.5L301.9,145.7z M309,145.7h-4.5l3.1-15.7h4.5L309,145.7z M328.1,145.7h-3.7l-5.2-8.6l-1.7,8.6h-4.4l3.1-15.7h3.7l5.2,8.6
			l1.7-8.6h4.4L328.1,145.7z M346.9,133.4H339l-0.5,2.7h7l-0.7,3.3h-7l-0.6,2.9h8.3l-0.7,3.4h-12.6l3.1-15.7h12.3L346.9,133.4z"/>
	</g>
	<g>
		<g>
			<g>
				<g>
					<g>
						<path class="st1" d="M203.9,34.8c-4.8,3.3-11.2,6.6-20.3,8.9c-17.1,4.5-34.3,0.5-38.2,0c0.1-0.9,0.2-2.3,0.4-3.4
							C174,44.2,192,37.2,205.6,28C203.9,30,203.9,34.8,203.9,34.8"/>
					</g>
					<g>
						<path class="st1" d="M182.8,34.1c-2.1-6.4-10.1-24.7-10.1-24.7s4.3,23.4,5.6,29.8c1.9,9.5,4.3,24.3,4.5,39.5
							c0,0.7,0,1.5,0,2.2c0,5.6-0.2,11.3-0.8,16.7c-0.1,1-0.3,2.1-0.4,3.1c-0.6,3.7-1.5,7.2-2.7,10.5c0,0,2.9-2.4,5.3-11.1
							c0.3-1,0.6-2.2,0.8-3.4c0.5-2.2,0.9-4.7,1.3-7.6c0.3-2.5,0.7-5.9,1-10c0-0.7,0.1-1.4,0.1-2.1C188,64.5,187.2,47.4,182.8,34.1"
							/>
					</g>
				</g>
			</g>
			<path class="st1" d="M146.9,94.1c-0.6,0.2-1.2,2.3-1.4,3.2c0.6,0.2,3.8,1.5,5.8,2c-0.1-0.1-0.2-0.3-0.3-0.5
				C148.6,95.6,147.3,94,146.9,94.1z"/>
			<polygon class="st1" points="176.5,16.9 176.5,16.9 176.5,16.9 			"/>
			<path class="st1" d="M192.2,12.9C192.2,12.9,192.2,12.9,192.2,12.9c-0.8,0.2-1.5,0.4-2.2,0.6c-4.3,1.3-8,2.4-13.4,3.5l1.2,2.8
				l0-0.1C183.3,18.3,187,16.3,192.2,12.9z"/>
			<path class="st1" d="M152.3,20.5c0.7-0.6,1.3-1.1,2-1.7c0.1,0,0.1-0.1,0.2-0.1c-2.2-0.1-4.5-0.4-6.8-0.7
				c-0.6,0.4-1.1,0.7-1.7,1.1C148,19.7,150.1,20.2,152.3,20.5z"/>
			<path class="st1" d="M142.9,18.1c0.4-0.2,0.7-0.4,1.1-0.7c-1-0.2-2.1-0.3-3.1-0.5c-0.1,0.1-0.3,0.2-0.4,0.2
				C141.3,17.5,142.1,17.8,142.9,18.1z"/>
			<path class="st1" d="M155.3,21c6.3,0.8,12.9,0.7,18.6-0.5l-0.1-0.5c-0.1-0.9-0.2-1.6-0.4-2.4c-5.6,1.1-10.8,1.4-16,1.3
				C156.7,19.5,156,20.2,155.3,21z"/>
			<path class="st1" d="M187.9,81.5l0,0.3c0,0.7-0.1,1.5-0.2,2.6c10.3-4,15.2-8.1,18.6-11.4C201.6,76.6,197,78.5,187.9,81.5z"/>
			<path class="st1" d="M149.8,83.7l-0.1,0c0.2,0.5,0.7,2.1,1,3c7.4,1.2,18.8,2.1,31-0.8c0.1-0.6,0.1-2,0.1-2.8
				c-2.9,0.7-9.1,1.5-14.7,1.9C161.2,85.4,156.4,84.7,149.8,83.7z"/>
			<path class="st1" d="M193.6,12.2l-0.6,0.4c-0.1,0.1-0.2,0.2-0.4,0.2c6.2,2.7,12.5,6.5,15.2,11.5c0.2,0.4,0,1-0.2,1.5
				c1.3-1,4.8-2.4,8.1-1.9c5.2,0.7,8.1,5.4,8.1,9.5c0,6.6-5.1,10.1-9.8,10.1c-2.7,0-5.3-1-7-2.7l0,0c-0.5-0.5-1.3-1.3-2-2.4
				c0.5,1.2,1.3,2.6,2.1,3.5c1.1,1.3,3,2.5,3,2.5l0,0l0,0c0,0,0.5,2.4,0.3,5.6l0,0l0,0c-1.8,2.3-10.6,10.3-21.9,14.7
				c0,0.6,0.1,2.3,0.1,3.3c7-2.2,17.8-8.5,21.9-11.3l0.2-0.1l0,0.2c0.6,12.3-5.2,23.7-5.3,23.8c-0.1,0.1-6.6,11.2-19.6,15.7
				c-0.2,1.1-0.5,2.3-0.8,3.4c4.7-1.2,16.5-7.7,17-8.2l0.3-0.3l-0.2,0.5c-2.2,6.4-5.4,14.5-7.7,16.8l0,0c-2.1,0.7-4.1,1-5.7,1.3
				c-1.2,0.2-2.2,0.4-2.9,0.6c-1.1,0.4-1.4,0.9-1.5,1.1c0.8,0,2.2,0,4,0c2.8,0,6.4,0,9,0c0.1-0.5,0.6-2.9,1.1-4.7
				c0.5-1.7,1.1-3.2,1.8-4.8c0.6-1.4,1.1-2.8,1.6-4.1c0.9-2.9,3-8.2,3.1-8.3l0,0c0.1,0,5-4.6,5.7-5.7l0.2-0.3l0,0.4
				c0.1,3.1,1,9.6,2.8,14.7c1.8,5,3.4,9.8,3.5,9.9l0,0.1l-0.1,0c0,0-1.9,0.5-3.3,0.7c-0.8,0.1-1.5,0.2-2.2,0.3
				c-1.4,0.2-2.5,0.3-3.5,0.6c-0.9,0.2-1.1,0.9-1.2,1.2h16.3c-3.1-3.1-6.9-8.6-8.1-17.3c-1.3-9.4-0.8-14.6-0.8-14.6l0,0l0,0
				c0.1-0.1,7.5-9.4,9.1-21.2c1.3-9.7-0.8-15.5-0.8-15.5l0-0.1l0.1-0.1c4.5-4.5,4.9-10.7,1.2-16c-1.7-2.4-6.3-6-12.7-4.3l-0.1,0l0,0
				c-5.7-5.3-10.4-7.4-13.9-8.9c-0.5-0.2-1-0.5-1.5-0.7c-5.5-2.6-12.2-3.9-15.6-4.5c2.7,0.7,7.3,2.1,12.2,4.2
				c0.3-0.1,0.5-0.1,0.8-0.2L193.6,12.2z M220.5,49.6c0,11.8-5.9,17.6-5.9,17.7l-0.3,0.3l0.1-0.4c1.3-5.1,1.9-13.1,1.9-13.2l0,0l0,0
				c0,0,1.8-1.7,4-4.4l0.2-0.2V49.6z"/>
			<path class="st1" d="M192.5,12.8c0,0,0.1,0,0.1,0.1c0.1-0.1,0.2-0.2,0.4-0.2l0.6-0.4l-0.7,0.2c-0.3,0.1-0.5,0.1-0.8,0.2
				c0.1,0,0.1,0,0.2,0.1c0.2-0.1,0.4-0.1,0.6-0.2C192.8,12.6,192.7,12.7,192.5,12.8z"/>
			<path class="st1" d="M193,12.5c-0.2,0.1-0.4,0.1-0.6,0.2c0.1,0,0.1,0.1,0.2,0.1C192.7,12.7,192.8,12.6,193,12.5z"/>
			<path class="st1" d="M154.1,96.1c0.3,0.8,1.3,3.5,1.9,4.4c12.2,2.6,23.2,0.5,24.6,0.2c0.1-0.6,0.2-1.3,0.4-2.8
				C172.9,100.1,163.9,99.4,154.1,96.1z"/>
			<path class="st1" d="M140.4,38.8l0,0.1l-0.7-0.2c-3-0.9-6.2-1.9-9.4-4.3l-0.1-0.1l0.1-0.1c0-0.1,4.9-6.8,10.8-11.6
				c1.5-1.2,3-2.3,4.5-3.4c-0.9-0.3-1.7-0.5-2.6-0.9c-4.8,2.9-8.4,5.8-10.7,7.9c-3,2.8-4.5,4.7-4.5,4.8l-0.4,0.5l0.2-0.6
				c0-0.1,2.3-7.1,12.5-13.7c-0.5-0.2-1-0.5-1.5-0.7l-0.7-0.4l0.7,0.1c0.8,0.1,1.5,0.3,2.2,0.4c2.7-1.6,5.8-3.3,9.6-4.7
				c5.8-2.2,11.2-3.8,15.1-4.4c-6.8,0.3-16.3,2-24.7,5.8c-14.7,6.7-19.8,15.1-19.8,15.2l0,0.1l-0.1,0c-4.1-1.4-9.6-0.1-11.8,5.1
				c-2.6,6.2,2.1,10.7,4.1,11.7l0.1,0v0.3l-0.1,0c-1.3,0.6-2.1,1.7-2.6,3.4c-1.1,4.1,1,7,8.2,11.5l0.5,0.3l-0.6-0.1
				c-3.9-0.6-4.7-0.8-6.4-2c0.1,3.6,1.6,9.1,4.5,16.3c1,4,0.1,13-2.2,23.7c-1.2,5.6-3.5,10.1-3.5,10.2l0,0.1l-0.1,0
				c0,0-3.5,0.5-5.2,0.7c-3.4,0.3-3.9,1.6-4,2h12.8c-0.1-0.2-0.3-0.7-0.4-1.4c0-0.1-0.1-0.2-0.1-0.3c-0.2-0.8-0.4-1.6,0-3.6
				c0.4-2.3,0.8-3.9,1.2-5.7c0.5-2.3,1.1-4.8,1.8-8.8c1-6.3,2.4-15.1,2.4-15.2l0-0.3l0.2,0.3c1.4,2.3,3.2,4.6,3.8,5.2
				c0.2,0.3,0.4,1.3,0.8,3.5c0.4,2.5,1,6.4,2.2,10.8c1.1,4.2,2.2,7.8,2.7,9.3c0.1,0.5,0.2,0.8,0.3,0.9c0.4,1.5,0.4,2.7,0.1,3.7l8,0
				c0.4-0.3,0.8-1.1,1-1.4c-0.8-0.1-4.6-0.7-7-1.4l-0.1,0l0-0.1c0,0-1.6-4.1-3-9.3c-1.3-5-1.5-6.7-2-10.6c-0.1-0.7-0.2-1.5-0.3-2.5
				l0-0.3l0.2,0.2c4.6,4.6,9.8,8.3,16.1,11.2c0.3-2.3,0-4.2-0.4-5.9c-0.7-0.5-1.3-1-2-1.4c-2.2-1.6-4-2.8-6.9-6.3l-0.3-0.4l0.4,0.2
				c1.8,0.8,6.6,2.7,7.6,3.1c-0.1-0.5-0.4-2-0.7-3.4c-0.8-0.2-7.4-1.8-12.4-6.3c-1.8-1.5-4.1-7.4-4.8-11.2l0-0.2l0.2,0.1
				c8.9,4,15.6,5.9,15.7,5.9l0.1,0l0,0.1c0,0,0.9,4.3,1.8,9.3c0.3,1.4,0.6,3,1,4.7c1,4.3,1.9,8.7,1.6,11.5c-0.3,2.6-0.9,5.3-1.8,8.4
				c-1.3,4.2-3.4,6.9-4,7.6h12.3c-0.1-0.2-0.5-0.8-1.6-1c-0.2,0-0.8-0.1-1.4-0.2c-2.4-0.3-4.5-0.6-4.9-1c-0.7-0.7,0.8-5.7,0.8-5.8
				c1-3.1,1.4-5.1,1.8-6.8c0.4-2.1,1.1-3.5,2-3.8c0.4-0.2,0.7-0.2,1.1,0c3,2.5,10.1,14.1,11.7,18.5c3.2,0,9.1,0,10,0
				c-0.1-1.1-1.4-1.3-3.7-1.6c-1.2-0.2-2.7-0.4-4.4-0.8l0,0c-3.8-2.5-7-9.7-10.5-19.7c-3.5-9.9-4.1-14.4-4.5-18l0-0.1l0.1,0
				c13.3,1.8,25.8,1.2,35.3-1.6c0-0.4-0.1-1.8-0.2-2.9c-9.8,2.7-22.6,3.3-35.2,1.5l-0.1,0l0-0.1c0,0-0.1-1.6-0.4-3.3l0-0.1l0.1,0
				c3.7-1.4,5.8-4.4,5.8-8c0-3.2-1.9-7.2-7.2-8.6l-0.1,0l0-0.3c-0.1-7.6,1.8-12.9,3.4-16c2.1-4.1,4.6-7.7,7.3-10.7
				c-0.8-0.1-1.7-0.2-2.5-0.4C147.2,25.3,143.1,31.6,140.4,38.8z M119.7,30.5c-1,1.5-1.7,2.4-3.2,5.5c-1.5,3-2.6,6.5-2.6,6.5l0,0.1
				l-0.1,0c-1.1-0.4-2.5-1.8-3.2-3.6c-0.7-1.6-0.6-3.4,0.1-5c0.8-1.8,2.3-3.2,4.2-3.9c2.1-0.8,4.4-0.6,5.2-0.2l0.1,0.1L119.7,30.5z
				 M141.9,109.8l-0.2,0.2c-0.2,0.2-0.4,0.4-0.6,0.4c0,0-0.1,0-0.1,0c-0.3,0-0.5-0.4-0.5-0.4l-0.1-0.2l0.2,0c0,0,0.4,0,1,0
				L141.9,109.8z M138.6,66.5c-7.8-3-14.4-8.3-16.8-11.8l0,0l0,0c1.1-9.2,5.3-15.8,5.3-15.8l0.1-0.1l0.1,0c4.2,1.8,7.5,2.9,11.8,3.8
				l0.1,0l0,0.1c-0.5,3.2-0.5,6.2-0.5,6.2l0,0.1l-0.1,0c0,0-4,2.1-4,7.9c0,4.1,3.9,6.7,3.9,6.8l0,0l0,0.1l0.3,2.8L138.6,66.5z
				 M150.6,56.9c0,3.8-3.1,7-7,7c-3.8,0-7-3.1-7-7c0-3.8,3.1-7,7-7C147.4,49.9,150.6,53,150.6,56.9z"/>
			<path class="st1" d="M162,11.2c-5.5,1.2-11.6,3.1-15.6,5.2c-0.6,0.3-1.1,0.6-1.7,0.9c1,0.2,2,0.3,3,0.4
				C152.4,14.8,157.2,12.6,162,11.2z"/>
			<path class="st1" d="M164.1,14c-3,0.9-6,2.5-8.9,4.5c0.7,0,1.5,0.1,2.2,0.1C159.5,16.6,161.8,15,164.1,14z"/>
			<path class="st1" d="M141.4,110c-0.2,0-0.4,0-0.5,0c0,0,0.1,0.1,0.2,0.1C141.2,110.2,141.3,110.1,141.4,110z"/>
			<path class="st1" d="M140.7,109.8l-0.2,0l0.1,0.2c0,0,0.2,0.3,0.5,0.4c0,0,0,0,0.1,0c0.2,0,0.4-0.1,0.6-0.4l0.2-0.2l-0.3,0
				C141.1,109.8,140.7,109.8,140.7,109.8z M140.7,110c0,0,0.4,0,1,0C141,110.7,140.7,110,140.7,110z"/>
			<path class="st1" d="M141.7,109.9c-0.6,0-1,0-1,0S141,110.7,141.7,109.9z M141.4,110c-0.1,0.1-0.2,0.1-0.3,0.1
				c-0.1,0-0.1,0-0.2-0.1C141,110.1,141.2,110.1,141.4,110z"/>
			<path class="st1" d="M152.6,20.6c0.8,0.1,1.6,0.3,2.5,0.4c0.7-0.7,1.4-1.4,2.1-2.1c-0.7,0-1.5-0.1-2.2-0.1
				c-0.1,0.1-0.3,0.2-0.4,0.3C153.8,19.5,153.2,20.1,152.6,20.6z"/>
			<path class="st1" d="M139.4,16.7c0.3,0.1,0.6,0.3,0.9,0.4c0.1-0.1,0.2-0.1,0.3-0.2C140.2,16.8,139.8,16.7,139.4,16.7z"/>
			<path class="st1" d="M145.8,19.1c0.5-0.4,1.1-0.7,1.6-1.1c-1-0.1-2-0.3-3-0.5c-0.4,0.2-0.8,0.5-1.2,0.7
				C144,18.5,144.9,18.8,145.8,19.1z"/>
			<path class="st1" d="M152.4,20.8c0.8,0.1,1.7,0.3,2.5,0.4c0,0,0.1-0.1,0.1-0.1c-0.8-0.1-1.7-0.2-2.5-0.4
				C152.4,20.7,152.4,20.7,152.4,20.8z"/>
			<path class="st1" d="M137.9,16.1l0.7,0.4c0.5,0.2,1,0.5,1.5,0.7c0,0,0.1,0,0.1-0.1c-0.5-0.2-1-0.5-1.5-0.7
				c0.7,0.1,1.4,0.3,2.1,0.4c0,0,0.1-0.1,0.1-0.1c-0.7-0.1-1.5-0.3-2.2-0.4L137.9,16.1z"/>
			<path class="st1" d="M157.3,18.6c-0.7,0-1.4-0.1-2.2-0.1c-0.1,0-0.1,0.1-0.2,0.1c0.7,0,1.5,0.1,2.2,0.1
				C157.3,18.7,157.3,18.7,157.3,18.6z"/>
			<path class="st1" d="M143.1,18.3c0,0-0.1,0.1-0.1,0.1c0.8,0.3,1.7,0.6,2.6,0.9c0,0,0.1-0.1,0.1-0.1
				C144.8,18.9,143.9,18.6,143.1,18.3z"/>
			<path class="st1" d="M147.7,17.8c-1-0.1-2-0.3-3-0.4c-0.1,0-0.1,0.1-0.2,0.1c1,0.2,2,0.3,3,0.5C147.6,17.8,147.7,17.8,147.7,17.8
				z"/>
			<path class="st1" d="M147.6,17.9c-1-0.1-2-0.3-3-0.5c-0.1,0-0.1,0.1-0.2,0.1c1,0.2,2,0.3,3,0.5C147.5,17.9,147.5,17.9,147.6,17.9
				z"/>
			<path class="st1" d="M140.2,17.1c0,0,0.1-0.1,0.1-0.1c-0.3-0.1-0.6-0.3-0.9-0.4c0.4,0.1,0.8,0.1,1.2,0.2c0,0,0.1-0.1,0.1-0.1
				c-0.7-0.1-1.4-0.3-2.1-0.4C139.2,16.6,139.7,16.9,140.2,17.1z"/>
			<path class="st1" d="M157.2,18.7c-0.7,0-1.5-0.1-2.2-0.1c0,0-0.1,0.1-0.1,0.1c0.7,0,1.5,0.1,2.2,0.1
				C157.1,18.8,157.2,18.8,157.2,18.7z"/>
			<path class="st1" d="M152.6,20.6C152.6,20.6,152.5,20.6,152.6,20.6c0.7,0.2,1.6,0.3,2.4,0.4c0,0,0.1-0.1,0.1-0.1
				C154.2,20.8,153.4,20.7,152.6,20.6z"/>
			<path class="st1" d="M145.7,19.1c0,0,0.1-0.1,0.1-0.1c-0.9-0.3-1.7-0.5-2.6-0.8c0,0-0.1,0-0.1,0.1
				C143.9,18.6,144.8,18.9,145.7,19.1z"/>
		</g>
	</g>
	<g>
		<path class="st1" d="M239.4,68.6h15.4c7.8,0,13.3,4,13.3,11.1c0,4-1.9,7.5-5.2,9.2V89c4.7,1.4,7,5.8,7,10.1
			c0,8.6-6.9,12.5-14.8,12.5h-15.6V68.6z M254.8,86.2c3.4,0,5.3-2.4,5.3-5.5c0-3.1-1.8-5.3-5.5-5.3h-7.5v10.8H254.8z M255.6,104.9
			c4,0,6.2-2.6,6.2-6.2c0-3.6-2.3-6.2-6.2-6.2h-8.4v12.4H255.6z"/>
		<path class="st1" d="M297.4,67.9c10.5,0,15.9,5.9,15.9,5.9l-3.8,5.8c0,0-4.9-4.5-11.8-4.5c-9.1,0-14.4,6.8-14.4,14.8
			c0,8.2,5.5,15.4,14.5,15.4c7.5,0,12.5-5.5,12.5-5.5l4.1,5.6c0,0-5.9,7-16.9,7c-13.1,0-22.2-9.8-22.2-22.4
			C275.3,77.5,284.8,67.9,297.4,67.9z"/>
		<path class="st1" d="M340.6,67.9c10.5,0,15.9,5.9,15.9,5.9l-3.8,5.8c0,0-4.9-4.5-11.8-4.5c-9.1,0-14.4,6.8-14.4,14.8
			c0,8.2,5.5,15.4,14.5,15.4c7.5,0,12.5-5.5,12.5-5.5l4.1,5.6c0,0-5.9,7-16.9,7c-13.1,0-22.2-9.8-22.2-22.4
			C318.5,77.5,327.9,67.9,340.6,67.9z"/>
	</g>
</g>
</svg>
